# xmcd
#
# Track frame offsets:
#	150
#	14242
#	33373
#	49779
#	62793
#	83158
#	98300
#	112876
#	125636
#	147825
#	159893
#	172412
#	186719
#	202378
#	216266
#	228220
#	240531
#	250906
#	264541
#	281440
#	294149
#	310900
#	323495
#	331127
#	343846
#
# Disc length: 4780 seconds
#
# Revision: 0
# Processed by: cddbd v1.5.2PL0 Copyright (c) Steve Scherf et al.
# Submitted via: EasyCDDAExtractor 12.0.1.1
#
DISCID=7312aa19
DTITLE=Merle Haggard - Collection
DYEAR=2000
DGENRE=Country
TTITLE0=All Night Long
TTITLE1=Are The Good Times Really Over
TTITLE2=CC Waterback
TTITLE3=Fighting side of me
TTITLE4=Stay Here and Drink
TTITLE5=I Threw Away the Rose
TTITLE6=Lukenbach Texas
TTITLE7=Misery and Gin
TTITLE8=Motorcycle Cowboy (Live)
TTITLE9=Must've Been Drunk
TTITLE10=Rainbow Stew
TTITLE11=Ramblin' Fever
TTITLE12=Rose Colored Glasses
TTITLE13=Saginaw Michigan
TTITLE14=San Antonio Rose
TTITLE15=Silver Wings
TTITLE16=Sing A Sad Song
TTITLE17=Tennessee Wiskey
TTITLE18=The Old Rugged Cross
TTITLE19=Tight Fittin Jeans
TTITLE20=Today I Started Loving You Aga
TTITLE21=The Bottle Let Me Down
TTITLE22=Turn Me Loose
TTITLE23=White Line Fever
TTITLE24=Yesterday's Wine
EXTD=
EXTT0=
EXTT1=
EXTT2=
EXTT3=
EXTT4=
EXTT5=
EXTT6=
EXTT7=
EXTT8=
EXTT9=
EXTT10=
EXTT11=
EXTT12=
EXTT13=
EXTT14=
EXTT15=
EXTT16=
EXTT17=
EXTT18=
EXTT19=
EXTT20=
EXTT21=
EXTT22=
EXTT23=
EXTT24=
PLAYORDER=
